# xmcd CD database file
#
# Track frame offsets:
#	150
#	23268
#	43901
#	71915
#	84671
#	101835
#	120063
#	139228
#	153252
#	173126
#	190384
#	205317
#	219886
#	236402
#	255008
#	275171
#	300223
#	319307
#	350135
#
# Disc length: 4799 seconds
#
# Revision: 0
# Processed by: cddbd v1.5.1PL2 Copyright (c) Steve Scherf et al.
# Submitted via: Feurio! 1.68 - http://www.feurio.com
#
DISCID=0912bd13
DTITLE=Rob Tognoni - Power Blues Rock
DYEAR=1900
DGENRE=
TTITLE0=Product a Southern Land
TTITLE1=Rob Tognoni Power Blues Rock - Sugar Coat
TTITLE2=Rob Tognoni Power Blues Rock - Crossword Blues (Live)
TTITLE3=Rob Tognoni band - Bottle of wine
TTITLE4=Rob Tognoni Band - When I'm Alone
TTITLE5=Rob Tognoni Power Blues Rock - The Sinner
TTITLE6=Stones and Colours
TTITLE7=Rob Tognoni Band - Bad Girl
TTITLE8=Rob Tognoni Band - Don't Be Too Hard On Me
TTITLE9=Jim Beam Blues
TTITLE10=Rob Tognoni Power Blues Rock - Weapon Called Love
TTITLE11=The Riverside
TTITLE12=Keep Your Head Above Water
TTITLE13=Rob Tognoni Power Blues Rock - ElmerF's Lil' Blues
TTITLE14=Itty Bitty Mama (with Dave Hol
TTITLE15=Not My Guitar
TTITLE16=Rob Tognoni Band - Inside Your Window
TTITLE17=Don't Wake Me Up
TTITLE18=Rob Tognoni Power Blues Rock - Dark Angel2
EXTD=
EXTT0=
EXTT1=http://mp3.com/
EXTT2=http://www.mp3.com/robtognoni
EXTT3=
EXTT4=
EXTT5=http://mp3.com/robtognoni
EXTT6=
EXTT7=http://mp3.com/robtognoni
EXTT8=
EXTT9=From Australia and introduced to Europe by blues master Dave Hole in 1994, 
EXTT9=Rob Tognoni delivers a 100% powerfully charged experience with every 
EXTT9=performance. There is simply no compromise, which is strongly evident in 
EXTT9=his music. After 30 years his explosive guitar playing and unique songs 
EXTT9=are now being compared with the greats of his genre and have firmly 
EXTT9=established him in the European venues and festivals as well as gaining 
EXTT9=many blues rock fans of all ages worldwide. During
EXTT10=http://mp3.com/robtognoni
EXTT11=Discovered by blues master Dave Hole in Australia in 1994 and with a 
EXTT11=cutting edge, the Rob Tognoni Band blend a mixture of hard rock, groove 
EXTT11=and blues to give a unique, powerful experience. After 30 years 
EXTT11=Tognoni's guitar playing and song writing is now being compared to the 
EXTT11=greats of his genre by Europe
EXTT12=Brought to you by Utopia lobby, The only paycorps' ass kickin' team.
EXTT13=http://www.mp3.com/robtognoni
EXTT14=http://mp3.com/robtognoni
EXTT15=Fox was here!
EXTT16=
EXTT17=
EXTT18=
PLAYORDER=
